<svg version="1.1" id="prefix__prefix__图层_1" xmlns="http://www.w3.org/2000/svg" xmlns:xlink="http://www.w3.org/1999/xlink" x="0" y="0" viewBox="0 0 119.3 50.3" xml:space="preserve"><style>.prefix__st0{fill:#1c78b5}</style><path class="prefix__st0" d="M6.2 40.4l-.2.3c1 1.4 2.5 2.5 4.5 3.2-.1.2-.3.5-.6.9-1.8-.9-3.3-2.1-4.4-3.5C4.4 42.7 2.9 43.9.9 45c-.2-.3-.4-.5-.6-.8 2.1-1 3.7-2.2 4.8-3.8h1.1zM.9 49.1h1.4v-3.9h.8v3.9h2.1v-5.7H6v2.2h3.1v.8H6v2.7h4v.7H.9v-.7zm17.6-.3h3.2v-8.3h.8v8.3h1.8v-8.3h.8v8.3h3.3v.7h-10v-.7h.1zm1.1-6.3c.6 1.3 1.1 2.7 1.6 4.1l-.8.4-1.5-4.2.7-.3zm5.9 4.2c.7-1.4 1.2-2.8 1.7-4.1l.8.3c-.6 1.6-1.2 3-1.8 4.1l-.7-.3zm11 2.2h4.7v-2.6h-3.6v-.8h3.6v-2.3h-2.7c-.4.8-1 1.5-1.5 2.2-.1-.2-.3-.5-.5-.7.9-1.1 1.7-2.4 2.3-3.9l.8.2c-.2.5-.4 1-.6 1.4h2.3v-2.1h.7v2.1h3.9v.8H42v2.3h3.6v.8H42v2.6h4.4v.8h-10l.1-.8zm18.1-4.5h1.8v-4.1h.8v4.1h7.1v.8h-4.4c.8 1.8 2.4 3.1 4.6 3.8-.2.3-.4.6-.6.8-2.4-.9-4-2.5-4.9-4.6h-1.8v3.7c.8-.3 1.6-.7 2.4-1.1v.9c-.8.3-1.6.7-2.3 1-.3.1-.5.3-.7.5l-.6-.7c.2-.2.3-.4.3-.7v-3.5h-1.8v-.9h.1zm3.2-1.2c1.7-.6 3.3-1.4 4.8-2.6l.5.7c-1.6 1.2-3.2 2-4.9 2.6-.1-.2-.3-.4-.4-.7zM72.9 42h1c.2-.6.5-1.2.6-1.7l.8.2c-.2.5-.4 1-.6 1.4h2v8H76v-.8h-2.3v.9h-.8v-8zm3.1.7h-2.3v2.5H76v-2.5zm-2.3 5.8H76v-2.6h-2.3v2.6zm3.2-4.5c.6-1 1.2-2.3 1.6-3.7l.8.2c-.2.5-.3 1-.5 1.4h3.3c-.1 3.5-.1 5.7-.2 6.6 0 1.1-.6 1.6-1.7 1.6-.6 0-1.2 0-1.9-.1 0-.3-.1-.6-.2-.9.7.1 1.3.1 1.8.1.6 0 .9-.3 1-1 .1-1 .1-2.9.2-5.6h-2.7c-.3.6-.6 1.2-.9 1.7-.1 0-.3-.1-.6-.3zm.9.7l.6-.5c.7.9 1.3 1.6 1.8 2.3l-.7.5c-.5-.7-1.1-1.5-1.7-2.3zM91 42.6h3.3v-2.3h.9c0 .7 0 1.5-.1 2.3h4.6c-.1 2.6-.2 4.5-.2 5.6-.1 1.2-.7 1.7-1.9 1.8h-2c0-.3-.1-.6-.2-1 .9.1 1.6.1 2 .1.7 0 1-.4 1.1-1.1.1-1.2.1-2.7.2-4.5H95c-.1 1.8-.3 3.1-.8 4-.5 1-1.6 1.9-3.1 2.8-.2-.2-.4-.5-.6-.8 1.5-.8 2.4-1.6 2.9-2.5.5-.8.7-1.9.8-3.5H91v-.9zm17.5 6.7h4.6v-.6h-4v-.5h4v-.6h-2.4v.3h-.7v-3.1h6.9v3.1h-.7v-.3h-2.4v.6h4.1v.5h-4.1v.6h4.6v.5h-10l.1-.5zm.1-5.5h9.9v.5h-9.9v-.5zm1.5-3.1h6.8v2.9h-.7v-.3h-5.4v.3h-.7v-2.9zm.6 5.3h2.4v-.6h-2.4v.6zm0 1.1h2.4v-.7h-2.4v.7zm5.5-5.9h-5.4v.5h5.4v-.5zm-5.4 1.6h5.4v-.5h-5.4v.5zm5.5 2.5h-2.4v.6h2.4v-.6zm-2.5 1.8h2.4v-.7h-2.4v.7zM90.4 4.7S89 6.3 88.8 6.6c-1.8-1.3-4.5-4-4.7-4.3-.3.4-1.8 2-2.8 2.6-.8.6-1.9 1.1-3 1.5v-.6C80.5 5 82.6.3 82.6.3l1.9.9-.1.3c.4.4 3.1 2 3.8 2.3.6.4 1.6.8 2.2.9"/><path class="prefix__st0" d="M85.5 8.5h4.4v-.8h-4.4V5.2l-2.2-.5v7.4h-1.8V7.5l-2.2-.6v5.2h-1.4v.7h12.5v-.7h-4.9z"/><defs><path id="prefix__SVGID_1_" d="M96 1.3h-1.2c-1.8 0-2 1.3-2.2 1.9h4.1c1.4-.1 1.9-1.6 1.7-2.5-.2.3-1.4.6-2.4.6"/></defs><clipPath id="prefix__SVGID_2_"><use xlink:href="#prefix__SVGID_1_" overflow="visible"/></clipPath><linearGradient id="prefix__SVGID_3_" gradientUnits="userSpaceOnUse" x1="-366.018" y1="330.571" x2="-365.774" y2="330.571" gradientTransform="matrix(23.9473 0 0 -23.9473 8857.741 7918.252)"><stop offset="0" stop-color="#1bb08a"/><stop offset="1" stop-color="#3a72b8"/></linearGradient><path clip-path="url(#prefix__SVGID_2_)" fill="url(#prefix__SVGID_3_)" d="M92.6.7h6v2.5h-6z"/><path class="prefix__st0" d="M98.3 8.5l-1.8-.1.9 4.1 1.6-.4z"/><path class="prefix__st0" d="M97.3 12.1V11l-2.3.3 1.4-5.5H99v-.7h-6.5v.8h1.8s-1.1 5-1.3 5.6c-.2.6.1 1.7.9 1.4.5-.2 3.4-.8 3.4-.8"/><path class="prefix__st0" d="M103.7 3.5H102V.8l-2-.5v3.1h-1.3v.7h1.3v3.2c0 1.4-.1 2.4-.2 3.1-.2.8-.5 1.4-.9 2l.3.4c2-1 3-3.3 2.9-6.6v-2h.6c.3 0 .5.2.5.4V11c0 .3 0 .8-.3.8h-1l-.6.9h2.6c.7 0 1.4-.7 1.4-1.7V4.7c-.2-.8-.7-1.2-1.6-1.2M117.5 3.3h-3.9V.9l-2.1-.5v2.9h-3.7V4h3.7c0 1.9-.2 3.6-.6 4.5-.5 1.4-1.7 2.7-3.7 4l.2.3c2.9-.9 4.7-2.3 5.5-4 .4-1 .7-2.8.8-4.8h2.9c.4 0 .7.2.7.6V11c0 .6-.5 1-.9 1h-1.2l-.6.9h2.9c1.1-.1 1.7-.7 1.8-1.9V5.3c-.1-1.1-.6-2-1.8-2M70.7 3.1V.3l-2.1 1v7h-2.5c-.3 0-.4-.1-.4-.4V4.2c0-.2.2-.3.5-.4h2v-.7h-2.9c-1 .1-1.6.6-1.7 1.5v3c.1.9.7 1.5 1.8 1.5h3.3v3.7h2.1V9.1h5.1v-6h-5.2zm3 5.2h-3V3.8h3v4.5z"/><g><linearGradient id="prefix__SVGID_4_" gradientUnits="userSpaceOnUse" x1="0" y1="15.872" x2="32.277" y2="15.872"><stop offset="0" stop-color="#22b297"/><stop offset="1" stop-color="#4689c9"/></linearGradient><path d="M30.7 28.8h-.4c-3.6 0-6.8-1.9-9-4.9h-9.6c-1 0-2.7-.5-4.3-2-1.1-1.1-2.4-3-2.4-6.1 0-5.5 4-8.1 6.7-8.1h9c1.2-2.3 3.1-4.2 5.3-5.4H11.7C5.2 2.5 0 8.5 0 15.9c0 7.4 5.2 13.4 11.6 13.5H32.4c-.1-.2-.7-.4-.7-.6h-1z" fill="url(#prefix__SVGID_4_)"/><linearGradient id="prefix__SVGID_5_" gradientUnits="userSpaceOnUse" x1="19.874" y1="14.831" x2="56.995" y2="14.831"><stop offset="0" stop-color="#22b297"/><stop offset="1" stop-color="#4689c9"/></linearGradient><path d="M45.3 23.9h-13c-2.2-.1-4.1-1.5-5.7-4.1l-.7-1.1h18.9c3.7 0 6.1-2.5 6.1-6.2-1.9.5-4.4.5-4.6.5H25.6l.7-1.1c2.4-3.8 5.5-4.1 6.5-4.1h18.4c1.8-.2 3.3-1 4.4-2.4 1-1.4 1.6-3.3 1.5-5.1-2.2 1.1-6.7 2.1-9.8 2.1H31.5c-6.4.1-11.6 6.1-11.6 13.5s5.2 13.4 11.6 13.5h7.9c3-.1 5.5-2.4 5.9-5.5z" fill="url(#prefix__SVGID_5_)"/></g><path class="prefix__st0" d="M89.9 27.1z"/><g><linearGradient id="prefix__SVGID_6_" gradientUnits="userSpaceOnUse" x1="67.283" y1="18.045" x2="78.694" y2="18.045"><stop offset="0" stop-color="#1bb08a"/><stop offset="1" stop-color="#3a72b8"/></linearGradient><path d="M78.7 17.3H68.1c-.9 0-.6 1-.8 1.6h10.2c1.1-.1 1.1-1 1.2-1.6z" fill="url(#prefix__SVGID_6_)"/><path class="prefix__st0" d="M66.4 22.5h3.1L67 27.8h10.2l.2.3h2.2l-1.9-3.9h-2.2l1 2.1h-6.6l1.8-3.8h7.9v-1.6H66.4zM91.6 17.2h-1.9l.3 1.1h-5.3v1.5H90v1.4H85.2v6.3H87v-4.9h3.2V28H92v-5.4h3.3c.1 0 .2 0 .3.1.1.1.1.2.1.3v2.6c0 .1 0 .2-.1.2-.1.1-.1.1-.2.1H95l-.7 1.5h2.2c.3 0 .6-.1.8-.3.2-.2.3-.5.3-.8V22.6c0-.2 0-.4-.1-.6-.1-.2-.2-.3-.3-.5-.1-.1-.3-.2-.5-.3-.2-.1-.4-.1-.6-.1H92v-1.4h5.7v-1.5H92l-.4-1zM106.2 20.2h1.4v-1.5h-1.4v-1.2h-1.8v1.2H103v1.5h1.4v6.4h-1.5v1.5h4.8v-1.5h-1.5zM115.9 19.9h-3.4l3.3-1.2v-1.5h-7.5v1.5h3.3l-3.3 1.2v1.5h1l-1.6 6.5h1.8l1.6-6.5h.7l-1.5 6.5h1.8l1.5-6.5h.5v4.9c0 .1 0 .2-.1.2-.1.1-.1.1-.2.1h-.5l-.6 1.5h2.2c.3 0 .6-.1.8-.3.2-.2.3-.5.3-.8v-7.1h-.1z"/></g></svg>